<svg width="20" height="20" viewBox="0 0 20 20" fill="none" xmlns="http://www.w3.org/2000/svg">
<path d="M16.7877 10.7546L10.4938 17.0491C10.3961 17.1468 10.2632 17.202 10.125 17.202H3.38408C2.91961 17.202 2.68676 16.6404 3.01543 16.3123C4.94033 14.3856 9.32448 9.99957 9.32448 9.99957C9.32448 9.99957 4.93972 5.61481 3.01543 3.68808C2.68661 3.36002 2.91961 2.79834 3.38408 2.79834H10.125C10.2634 2.79834 10.3961 2.85358 10.4938 2.95123L13.3502 5.80768L16.7877 9.24457C17.2043 9.66174 17.2043 10.3374 16.7877 10.7546Z" fill="#FAA432"/>
<path d="M12.8456 10.7546L6.55166 17.0491C6.454 17.1468 6.32125 17.202 6.183 17.202H3.38408C2.91961 17.202 2.68676 16.6404 3.01543 16.3123C4.94033 14.3856 9.32448 9.99957 9.32448 9.99957C9.32448 9.99957 4.93972 5.61481 3.01543 3.68808C2.68661 3.36002 2.91961 2.79834 3.38408 2.79834H6.183C6.32125 2.79834 6.45415 2.85358 6.55181 2.95123L12.8458 9.24442C13.2623 9.66174 13.2623 10.3374 12.8456 10.7546Z" fill="#0D9B4D"/>
<path d="M12.8456 10.7546L6.55167 17.0491C6.45401 17.1468 6.32126 17.202 6.18301 17.202H4.54315C4.6814 17.202 4.81415 17.1468 4.9118 17.0491L11.3878 10.5727C11.8044 10.1554 11.8044 9.84363 11.3878 9.42645L4.9118 2.95123C4.81415 2.85358 4.6814 2.79834 4.54315 2.79834H6.18301C6.32126 2.79834 6.45401 2.85358 6.55167 2.95123L12.8456 9.24457C13.2623 9.66174 13.2623 10.3374 12.8456 10.7546Z" fill="#FFA816"/>
<path d="M16.9948 9.03735L13.5574 5.60046L10.701 2.74402C10.5493 2.59235 10.3393 2.50537 10.1249 2.50537H3.38407C3.04823 2.50537 2.75983 2.69824 2.63136 3.00861C2.50318 3.31866 2.57093 3.65848 2.80805 3.89514C4.47172 5.56094 8.01725 9.10663 8.91019 9.99957C8.01939 10.8908 4.48301 14.4287 2.80836 16.1049C2.57093 16.342 2.50318 16.6819 2.63136 16.9918C2.75983 17.3021 3.04823 17.495 3.38407 17.495H10.1249C10.3393 17.495 10.5493 17.408 10.701 17.2563L16.9949 10.9618C16.9949 10.9618 16.9949 10.9618 16.9949 10.9616C17.5247 10.4311 17.5247 9.56805 16.9948 9.03735ZM16.5803 10.5477L16.5805 10.5475L10.2865 16.8421C10.244 16.8846 10.1851 16.9091 10.1249 16.9091H3.38407C3.24232 16.9091 3.18647 16.8009 3.17289 16.7678C3.15916 16.7348 3.12238 16.6194 3.22263 16.5193C5.14753 14.5926 9.53169 10.2066 9.53169 10.2066C9.64613 10.0922 9.64613 9.9068 9.53169 9.79236C9.48774 9.74857 5.12495 5.38562 3.22233 3.48071C3.12238 3.38092 3.15916 3.26556 3.17289 3.23245C3.18647 3.19934 3.24232 3.09131 3.38407 3.09131H10.1249C10.1851 3.09131 10.244 3.11572 10.2865 3.15829L13.1431 6.01489L16.5803 9.45148C16.8821 9.75375 16.8821 10.2454 16.5803 10.5477Z" fill="white"/>
</svg>
